# xmcd CD database file generated by OrangeCD 4.2
#
# Track frame offsets:
#	150
#	13587
#	38810
#	58265
#	73966
#	82805
#	107116
#	130049
#	144917
#	155166
#	175307
#	192778
#	205058
#
# Disc length: 2792 seconds
#
# Revision: 0
# Processed by: cddbd v1.4PL0 Copyright (c) Steve Scherf et al.
# Submitted via: OrangeCD 4.2
#
DISCID=b30ae60d
DTITLE=Sugarland Slim - Blues This Bad
DYEAR=1900
DGENRE=Blues
TTITLE0=Blues This Bad
TTITLE1=Red House
TTITLE2=Hey Hey
TTITLE3=Preachin' Blues
TTITLE4=Just Tap Jammin'
TTITLE5=Eagle Eye
TTITLE6=See That My Grave Is Kept Clean
TTITLE7=4 'Til Late
TTITLE8=Train Time Blues
TTITLE9=Shotgun Blues
TTITLE10=Sun Ain't Gonna Rise
TTITLE11=Can't Be Satisfied
TTITLE12=End
EXTD=
EXTT0=
EXTT1=
EXTT2=
EXTT3=
EXTT4=
EXTT5=
EXTT6=
EXTT7=
EXTT8=
EXTT9=
EXTT10=
EXTT11=
EXTT12=
PLAYORDER=
